<svg width="195" height="34" viewBox="0 0 195 34" fill="none" xmlns="http://www.w3.org/2000/svg">
<path d="M11.35 0.339998H21.378L31.774 33H22.666L20.688 26.606H11.994L10.062 33H0.908L11.35 0.339998ZM19.262 20.626L16.364 9.126L13.328 20.626H19.262ZM33.9816 33V24.536H41.0656V33H33.9816ZM52.5613 0.339998L58.4953 10.644L64.4293 0.339998H74.0893L63.8313 16.9L73.7213 33H64.0613L58.4953 23.156L52.9293 33H43.2233L53.1133 16.9L42.8553 0.339998H52.5613ZM75.8938 33V24.536H82.9778V33H75.8938ZM88.0794 33V0.339998H97.0494V33H88.0794ZM102.173 33V24.536H109.257V33H102.173ZM129.079 33.276C126.595 33.276 124.341 32.816 122.317 31.896C120.293 30.9453 118.545 29.688 117.073 28.124C115.631 26.5293 114.512 24.7507 113.715 22.788C112.948 20.7947 112.565 18.74 112.565 16.624C112.565 14.4467 112.979 12.3767 113.807 10.414C114.635 8.45133 115.785 6.70333 117.257 5.17C118.759 3.606 120.523 2.37933 122.547 1.49C124.601 0.600664 126.84 0.155998 129.263 0.155998C131.747 0.155998 134.001 0.631331 136.025 1.582C138.049 2.502 139.781 3.75933 141.223 5.354C142.664 6.94867 143.768 8.74267 144.535 10.736C145.332 12.6987 145.731 14.7227 145.731 16.808C145.731 18.9547 145.317 21.0093 144.489 22.972C143.691 24.9347 142.541 26.698 141.039 28.262C139.567 29.7953 137.819 31.022 135.795 31.942C133.771 32.8313 131.532 33.276 129.079 33.276ZM121.673 16.716C121.673 17.82 121.826 18.8933 122.133 19.936C122.439 20.948 122.899 21.868 123.513 22.696C124.126 23.4933 124.893 24.1373 125.813 24.628C126.763 25.088 127.883 25.318 129.171 25.318C130.459 25.318 131.578 25.0727 132.529 24.582C133.479 24.0913 134.246 23.432 134.829 22.604C135.442 21.7453 135.887 20.81 136.163 19.798C136.469 18.7553 136.623 17.6973 136.623 16.624C136.623 15.52 136.469 14.462 136.163 13.45C135.856 12.438 135.396 11.5333 134.783 10.736C134.169 9.908 133.387 9.264 132.437 8.804C131.486 8.344 130.382 8.114 129.125 8.114C127.837 8.114 126.717 8.35933 125.767 8.85C124.847 9.34067 124.08 10 123.467 10.828C122.853 11.6253 122.393 12.5453 122.087 13.588C121.811 14.6 121.673 15.6427 121.673 16.716ZM149.027 33V24.536H156.111V33H149.027ZM185.914 33V15.796L180.44 27.894H175.656L170.182 15.796V33H161.212V0.339998H171.01L178.048 15.704L185.132 0.339998H194.884V33H185.914Z" fill="#EFE2EE"/>
</svg>
